<svg clip-rule="evenodd" fill-rule="evenodd" stroke-linejoin="round" stroke-miterlimit="2" viewBox="0 0 64 64" xmlns="http://www.w3.org/2000/svg" xmlns:xlink="http://www.w3.org/1999/xlink"><linearGradient id="_Linear1" gradientTransform="matrix(0 -64.5 64.5 0 1720 72.5)" gradientUnits="userSpaceOnUse" x1="0" x2="1" y1="0" y2="0"><stop offset="0" stop-color="#7e0d9d"/><stop offset=".5" stop-color="#7328f2"/><stop offset="1" stop-color="#51a0f7"/></linearGradient><g transform="translate(-1688 -8)"><path d="m1739.9 51.382c-.27-.824-1.03-1.382-1.9-1.382s-1.63.558-1.9 1.382l-1.9 5.823s-5.82 1.893-5.82 1.893c-.82.268-1.38 1.036-1.38 1.902s.56 1.634 1.38 1.902l5.82 1.893s1.9 5.823 1.9 5.823c.27.824 1.03 1.382 1.9 1.382s1.63-.558 1.9-1.382l1.9-5.823s5.82-1.893 5.82-1.893c.82-.268 1.38-1.036 1.38-1.902s-.56-1.634-1.38-1.902l-5.82-1.893s-1.9-5.823-1.9-5.823zm-51.9-6.383v.001c0 1.461.94 2.759 2.33 3.211 0 0 14.69 4.774 14.69 4.774s4.77 14.683 4.77 14.683c.45 1.39 1.75 2.332 3.21 2.332 1.46 0 2.76-.941 3.21-2.332 0 0 4.78-14.683 4.78-14.683s14.68-4.774 14.68-4.774c1.39-.452 2.33-1.75 2.33-3.211 0-.001 0-.001 0-.001 0-1.462-.94-2.758-2.33-3.21 0 0-14.68-4.774-14.68-4.774s-4.78-14.683-4.78-14.683c-.45-1.391-1.75-2.332-3.21-2.332-1.46 0-2.76.942-3.21 2.332 0 0-4.77 14.683-4.77 14.683s-14.69 4.774-14.69 4.774c-1.39.452-2.33 1.748-2.33 3.21zm25-19.607 4.5 13.828c.19.609.67 1.086 1.28 1.284l13.83 4.496-13.83 4.496c-.61.198-1.09.675-1.28 1.284l-4.5 13.828-4.5-13.828c-.19-.609-.67-1.086-1.28-1.284l-13.83-4.496 13.83-4.496c.61-.198 1.09-.675 1.28-1.284zm25 33.076.31.942c.19.609.67 1.086 1.28 1.284l.94.306s-.94.306-.94.306c-.61.198-1.09.675-1.28 1.284l-.31.942s-.31-.942-.31-.942c-.19-.609-.67-1.086-1.28-1.284l-.94-.306s.94-.306.94-.306c.61-.198 1.09-.675 1.28-1.284zm.9-49.086c-.27-.824-1.03-1.382-1.9-1.382s-1.63.558-1.9 1.382l-2.88 8.841s-8.84 2.875-8.84 2.875c-.82.268-1.38 1.036-1.38 1.902s.56 1.634 1.38 1.902l8.84 2.875s2.88 8.841 2.88 8.841c.27.824 1.03 1.382 1.9 1.382s1.63-.558 1.9-1.382l2.88-8.841s8.84-2.875 8.84-2.875c.82-.268 1.38-1.036 1.38-1.902s-.56-1.634-1.38-1.902l-8.84-2.875s-2.88-8.841-2.88-8.841zm-1.9 7.086 1.29 3.961c.2.608.67 1.085 1.28 1.283l3.96 1.288s-3.96 1.288-3.96 1.288c-.61.198-1.08.675-1.28 1.283l-1.29 3.961s-1.29-3.961-1.29-3.961c-.2-.608-.67-1.085-1.28-1.283l-3.96-1.288s3.96-1.288 3.96-1.288c.61-.198 1.08-.675 1.28-1.283zm-41 4.532h-2c-1.1 0-2 .896-2 2s.9 2 2 2h2v2c0 1.104.9 2 2 2s2-.896 2-2v-2h2c1.1 0 2-.896 2-2s-.9-2-2-2h-2v-2c0-1.104-.9-2-2-2s-2 .896-2 2z" fill="url(#_Linear1)"/></g></svg>